/* XPM */
static char * ramassage_xpm[] = {
"32 32 35 1",
" 	c #3E9B6D",
".	c #8ACC29",
"+	c #72BB79",
"@	c #8ECC80",
"#	c #5FB277",
"$	c #48A270",
"%	c #59AD75",
"&	c #84C67E",
"*	c #75BE7A",
"=	c #000000",
"-	c #8DCB80",
";	c #51A872",
">	c #75BD7B",
",	c #3E5A2F",
"'	c #86C77E",
")	c #8ECD80",
"!	c #6D992A",
"~	c #141E1A",
"{	c #8DCC7F",
"]	c #51A873",
"^	c #76BE7B",
"/	c #7CC27C",
"(	c #595959",
"_	c #78C17C",
":	c #5FB276",
"<	c #85C87F",
"[	c #F5F5F5",
"}	c #8BCA80",
"|	c #86C97F",
"1	c #87CA80",
"2	c #86C87E",
"3	c #8BCA7F",
"4	c #8CCA7F",
"5	c #8BCB80",
"6	c #7BC17C",
" ..   ..+  @ +...@ +.#   .  @@. ",
".  . . $ ...@.+.@....%&. ..@...@",
". .@@..$ ..@..+...@...... $.@@@ ",
" .@@@.*$..@@..$.@@=== @@&-;% @ $",
"$ @@@. .   ..>   =,,=..@@&..... ",
"   . $. ...'.$ ++=,,=..@...  $ +",
"$+.. . .@.@$====.===.@@@). +  $ ",
".. $$++.@)@=,,!!~ &.  @....  .. ",
"+ ... $.@.=,!!,=~  ..{...  ... $",
" ...++$] =,!!,=. ~.  .;.&{@@... ",
"..&.$..&=!!,==  @~+ . .  @@.@.. ",
"@@ +@.&.$===+. @.@~+. .$$ @@.   ",
"..@@.@ ...@.. @@@.~+ $...  ..$  ",
"@.@.@.@@@@.@+$ @.. ~...+ +.^ .. ",
"@.$@.@. @.@.+  .@ $~ .   . ].+..",
".   ..$  @ . ~..^~ ~.  @ *.$.   ",
"$$.&^  .+/. ~(~ ~(~~  @@...+ .$ ",
"..; $.._;] +~(~.~(~~ @.@@@+  .  ",
";+ .$ :. &..~(~~~(~~..@.@ .... $",
"; .. ..<&. ;~((((((~  .@ $.@@ + ",
"...+ $-... ~[[(([[(~ >+^..@@@@+ ",
".@@.}&. @@.~[=((=[((~ .$$+@.@   ",
"@@..+& @..~([[(([[((~. .  .. $  ",
"..@@@&..)@~(((((((((~;.%.....$. ",
" @@..|]@..~(([[[[(((~~ &..;. .. ",
"+...1*$..)~([[[[[[((((~. ;.$.+..",
"..2++.3}4/+~[[[[[[(~~~.@ & .    ",
" @;+.5  @>..~~~~~~~&} ..@}.% @ +",
"@@@ .  @.. @...+& .. @.@..{ @@..",
"@@@.+....@@@.@@@& . @@@...}@..@@",
"...  $.@@@..@.@. . |%@.@@;$ @@. ",
" @ $+.  @&$....;  &} .@@;6   . $"};
