/* XPM */
static char * ennemi_xpm[] = {
"32 32 32 1",
" 	c #3E9B6D",
".	c #8ACC29",
"+	c #72BB79",
"@	c #8ECC80",
"#	c #5FB277",
"$	c #48A270",
"%	c #59AD75",
"&	c #84C67E",
"*	c #75BE7A",
"=	c #141E1A",
"-	c #8BCA80",
";	c #8DCB80",
">	c #51A872",
",	c #75BD7B",
"'	c #86C77E",
")	c #78C17C",
"!	c #8ECD80",
"~	c #FFFFFF",
"{	c #76BE7B",
"]	c #5FB276",
"^	c #FEFFC1",
"/	c #86C97F",
"(	c #51A873",
"_	c #87CA80",
":	c #86C87E",
"<	c #8BCA7F",
"[	c #8CCA7F",
"}	c #7CC27C",
"|	c #8DCC80",
"1	c #8BCB80",
"2	c #8DCC7F",
"3	c #7BC17C",
" ..   ..+  @ +...@ +.#   .  @@. ",
".  . . $ ...@.+.@....%&. ..@...@",
". .@@..$ ..@..+...@...... $.@@@ ",
" .@@@.*$..@@=.$.@==&- @@&;>% @ $",
"$ @@@. .   .=,   ==$...@@&..... ",
"   . $.===.'===+===.@.=@...  $ +",
"$+.. . .@===+==.=..)===@!.==  $ ",
".. $$++.@===+==.= &.===...== .. ",
"+ ... ===.============.=====.. $",
" ...++$===================@@... ",
"..&.$..===================@.@.. ",
"@@ +===.$===~~~====~~~=== @@.   ",
"..@@.@====~~~==~=~~==~~=====.$  ",
"@.@.@.====~~===~=~~===~===== .. ",
"@.$===.===~~~==~=~~==~~==.===+..",
".   ..======~~~====~~~===*.$.   ",
"$$.&{ ======~~~====~~~===..+ .$ ",
"..> $..)>=================== .  ",
">+ .$ ]================.@ .... $",
"> .. ..================@ $.@@ + ",
"...+ $===.===============.@@@@+ ",
".@@.-&= @@..========+ .===^^@   ",
"@@..+&=@..@@========.. ===^^ $  ",
"..@@@&..!@===>$=.@.===.%.=...$. ",
" @@../(@.===.+ ==. .===&..>. .. ",
"+..._*$..===+..==...===. >.$.+..",
"..:++.<-[}+|.   =$..@-.@ & .    ",
" @>+.1  @,..!@.....&- ..@-.% @ +",
"@@@ .  @.. @...+& .. @.@..2 @@..",
"@@@.+....@@@.@@@& . @@@...-@..@@",
"...  $.@@@..@.@. . /%@.@@>$ @@. ",
" @ $+.  @&$....>  &- .@@>3   . $"};
