/* XPM */
static char * sortie_ouverte_xpm[] = {
"32 32 37 1",
" 	c #3E9B6D",
".	c #8ACC29",
"+	c #72BB79",
"@	c #8ECC80",
"#	c #5FB277",
"$	c #48A270",
"%	c #041978",
"&	c #59AD75",
"*	c #84C67E",
"=	c #163AE8",
"-	c #75BE7A",
";	c #8DCB80",
">	c #51A872",
",	c #FEFFC1",
"'	c #F7F98A",
")	c #193631",
"!	c #76BE7B",
"~	c #51A873",
"{	c #78C17C",
"]	c #5FB276",
"^	c #85C87F",
"/	c #29433C",
"(	c #75BD7B",
"_	c #8BCA80",
":	c #8ECD80",
"<	c #86C97F",
"[	c #87CA80",
"}	c #65B678",
"|	c #86CA80",
"1	c #86C87E",
"2	c #8BCA7F",
"3	c #8CCA7F",
"4	c #7CC27C",
"5	c #8DCC80",
"6	c #8BCB80",
"7	c #8DCC7F",
"8	c #7BC17C",
" ..   ..+  @ +...@ +.#   .  @@. ",
".  . . $ ...@%%%%%%%.&*. ..@...@",
". .@@..$ ..%%=======%%... $.@@@ ",
" .@@@.-$..%===========%@*;>& @ $",
"$ @@@. . %,==,,,==,==,=%@*..... ",
"   . $. %,,,=,=,=,,,=,,=%..  $ +",
"$+.. . %==,==,=,=,=,==,==% +  $ ",
".. $$++%=================%.  .. ",
"+ ... '''',,,,,,,,,,,,,,,''... '",
" ...++',))),)))),)))),),),'@...'",
"..*.$.',,),,)),),,),))),),'.@.. ",
"@@ +@.',),),,,),,,),,)),,,'@.   ",
"..@@.@''',,,,,,,,,,,,,,,,''..$  ",
"@.@.@.@%=======,,========%.! .. ",
"@.$@.@.%%,====,==,=======% ~.+..",
".   ..$ %,,,===,,==,=,,=%-.$.   ",
"$$.*!  .+%,==,=====,=,=%...+ .$ ",
"..> $..{>~%,=,,=,=,===%@@@+  .  ",
">+ .$ ]. *.%%===,,==%%@.@ .... $",
"> .. ..^*. >$%%%%%%%  .@ $.@@ + ",
"...+ $;... *.>.///.+ (+!..@@@@+ ",
".@@._*. @@.....///@ + .$$+@.@   ",
"@@..+* @..@@_. ///@@.. .  .. $  ",
"..@@@*..:@.@.>$///.. >.&.....$. ",
" @@..<~@..:].+ /// ... *..>. .. ",
"+...[-$..:}.+..///...|*. >.$.+..",
"..1++.2_34+5.  ///..@_.@ * .    ",
" @>+.6  @(..:@.///.*_ ..@_.& @ +",
"@@@ .  @.. @...///.. @.@..7 @@..",
"@@@.+....@@@.@@///. @@@..._@..@@",
"...  $.@@@..@.@/// <&@.@@>$ @@. ",
" @ $+.  @*$....///*_ .@@>8   . $"};
