/* XPM */
static char * perso_cote_1_xpm[] = {
"32 32 42 1",
" 	c #3E9B6D",
".	c #8ACC29",
"+	c #72BB79",
"@	c #8ECC80",
"#	c #5FB277",
"$	c #48A270",
"%	c #D8725E",
"&	c #59AD75",
"*	c #84C67E",
"=	c #F09F71",
"-	c #75BE7A",
";	c #F7CF91",
">	c #8DCB80",
",	c #51A872",
"'	c #8ECD80",
")	c #B87E6C",
"!	c #8F5252",
"~	c #EBC8A7",
"{	c #FCECD1",
"]	c #8DCC7F",
"^	c #FF0000",
"/	c #000000",
"(	c #D3A084",
"_	c #C57F79",
":	c #A94B54",
"<	c #76BE7B",
"[	c #51A873",
"}	c #DBC9B4",
"|	c #F1FF00",
"1	c #78C17C",
"2	c #9C807E",
"3	c #5FB276",
"4	c #85C87F",
"5	c #8BCA80",
"6	c #7A3B4F",
"7	c #86C97F",
"8	c #87CA80",
"9	c #86C87E",
"0	c #8BCA7F",
"a	c #8BCB80",
"b	c #75BD7B",
"c	c #7BC17C",
" ..   ..+  @ +...@ +.#   .  @@. ",
".  . . $ ...@.+.@.%%.&*. ..@...@",
". .@@..$ ..@..+%%%%===... $.@@@ ",
" .@@@.-$..@%%%%%====;==@*>,& @ $",
"$ @@@. .   %%==;;;;;;;=@@*..... ",
"   . $. ..%%=;;;;;;;;;=@...  $ +",
"$+.. . .@==;;;;;======@@'. +  $ ",
".. $$++.;=;;====)!!))!@....  .. ",
"+ ... $.=;;=!)))!~~!!!!..  ... $",
" ...++$==;=!!!)!~~{~!.,.*]@@... ",
"..*.$..*+=^^!!!~~~/~~ .  @@.@.. ",
"@@ +@.*.))^^(~!~~~/~~~.$$ @@.   ",
"..@@.@ )!!!!(_~~~_~~~~...  ..$  ",
"@.@.@.)!!))!__~~~~~~:~.+ +.< .. ",
"@.$@.!!)))!.+ ______~.   . [.+..",
".   ..$!)! . {{{}{}|.  @ -.$.   ",
"$$.*<  !!!. {{}}}}}|  @@...+ .$ ",
".., $..1,[ 2}}}}{{}}:@.@@@+  .  ",
",+ .$ 3. *.22{}}}}}2:.@.@ .... $",
", .. ..4*.::2{}}}}22::.@ $.@@ + ",
"...+ $>..=||2{{{}22::::<..@@@@+ ",
".@@.5*. ::=|222222:::::$$+@.@   ",
"@@..+* @:::=|||=::::::::  .. $  ",
"..@@@*.6::::===:::::::::.....$. ",
" @@..7[66::::::::::::::::.,. .. ",
"+...8-$.6::::::::::::::66,.$.+..",
"..9++.05666666:6666666666* .    ",
" @,+.a  @b.(666..(((5 ..@5.& @ +",
"@@@ .  @.. {({.+*{({ @.@..] @@..",
"@@@.+....@@{{{@@*{{{{@@...5@..@@",
"...  $.@@@..@.@. . 7&@.@@,$ @@. ",
" @ $+.  @*$....,  *5 .@@,c   . $"};
