/* XPM */
static char * perso_cote_xpm[] = {
"32 32 43 1",
" 	c #3E9B6D",
".	c #8ACC29",
"+	c #72BB79",
"@	c #8ECC80",
"#	c #5FB277",
"$	c #48A270",
"%	c #D8725E",
"&	c #59AD75",
"*	c #84C67E",
"=	c #F09F71",
"-	c #75BE7A",
";	c #F7CF91",
">	c #8DCB80",
",	c #51A872",
"'	c #8ECD80",
")	c #8F5252",
"!	c #B87E6C",
"~	c #EBC8A7",
"{	c #51A873",
"]	c #FCECD1",
"^	c #8DCC7F",
"/	c #76BE7B",
"(	c #000000",
"_	c #FF0000",
":	c #D3A084",
"<	c #C57F79",
"[	c #A94B54",
"}	c #F1FF00",
"|	c #DBC9B4",
"1	c #7CC27C",
"2	c #78C17C",
"3	c #9C807E",
"4	c #5FB276",
"5	c #85C87F",
"6	c #8BCA80",
"7	c #7A3B4F",
"8	c #86C97F",
"9	c #87CA80",
"0	c #86C87E",
"a	c #8BCA7F",
"b	c #8BCB80",
"c	c #75BD7B",
"d	c #7BC17C",
" ..   ..+  @ +...@ +.#   .  @@. ",
".  . . $ ...%%+.@....&*. ..@...@",
". .@@..$ .===%%%%.@...... $.@@@ ",
" .@@@.-$.==;====%%%%% @@*>,& @ $",
"$ @@@. . =;;;;;;;==%%..@@*..... ",
"   . $. .=;;;;;;;;;=%%.@...  $ +",
"$+.. . .@.======;;;;;==@'. +  $ ",
".. $$++.@')!!))!====;;=;...  .. ",
"+ ... $.@))))~~)!!!)=;;=.  ... $",
" ...++${ . )~]~~)!)))=;==^@@... ",
"..*.$..*+/ ~~(~~~)))__=  @@.@.. ",
"@@ +@.*.$@~~~(~~~)~:__!!$ @@.   ",
"..@@.@ ...~~~~<~~~<:))))!  ..$  ",
"@.@.@.@@@@~[~~~~~~<<)!!))!./ .. ",
"@.$@.@. @.@~<<<<<<$. )!!!)){.+..",
".   ..$  @ .}|]|]]] . )!)-.$.   ",
"$$.*/  .+1. }|||||]]  )))..+ .$ ",
".., $..2,{ [||]]||||3@.@@@+  .  ",
",+ .$ 4. *.[3|||||]33.@.@ .... $",
", .. ..5*.[[33||||]3[[.@ $.@@ + ",
"...+ $>..[[[[33|]]]3}}=/..@@@@+ ",
".@@.6*. @[[[[[333333}=[[$+@.@   ",
"@@..+* @[[[[[[[[=}}}=[[[  .. $  ",
"..@@@*..[[[[[[[[[===[[[[7....$. ",
" @@..8{[[[[[[[[[[[[[[[[77.,. .. ",
"+...9-$77[[[[[[[[[[[[[[7 ,.$.+..",
"..0++.a7777777777[777777 * .    ",
" @,+.b  @c..:::..777: ..@6.& @ +",
"@@@ .  @.. @]:]+* ]:]@.@..^ @@..",
"@@@.+....@@]]]]@* ]]]@@...6@..@@",
"...  $.@@@..@.@. . 8&@.@@,$ @@. ",
" @ $+.  @*$....,  *6 .@@,d   . $"};
