/* XPM */
static char * perso_face_xpm[] = {
"32 32 42 1",
" 	c #3E9B6D",
".	c #8ACC29",
"+	c #72BB79",
"@	c #8ECC80",
"#	c #5FB277",
"$	c #48A270",
"%	c #F7CF91",
"&	c #59AD75",
"*	c #84C67E",
"=	c #75BE7A",
"-	c #A94B54",
";	c #8BCA80",
">	c #8DCB80",
",	c #51A872",
"'	c #F09F71",
")	c #8F5252",
"!	c #8ECD80",
"~	c #EBC8A7",
"{	c #B87E6C",
"]	c #FF0000",
"^	c #8DCC7F",
"/	c #FCECD1",
"(	c #000000",
"_	c #6A3948",
":	c #76BE7B",
"<	c #51A873",
"[	c #7A3B4F",
"}	c #F5FF5D",
"|	c #D3A084",
"1	c #78C17C",
"2	c #5FB276",
"3	c #86C97F",
"4	c #7B6268",
"5	c #87CA80",
"6	c #86C87E",
"7	c #8BCA7F",
"8	c #8CCA7F",
"9	c #7CC27C",
"0	c #DBC9B4",
"a	c #8BCB80",
"b	c #75BD7B",
"c	c #7BC17C",
" ..   ..+  @ +...@ +.#   .  @@. ",
".  . . $ ...%%%%%%...&*. ..@...@",
". .@@..$ .%%%%%%%%%%..... $.@@@ ",
" .@@@.=$..%%------%%; @@*>,& @ $",
"$ @@@. .  ---%%%%---...@@*..... ",
"   . $. .--%%''''%%--..@...  $ +",
"$+.. . )%%%''%%%%''%%%)@!. +  $ ",
".. $$++))''%''%%''%''))....  .. ",
"+ ... $)))''%''''%%')))..  ... $",
" ...++~~{])''%%%%'')]~~~*^@@... ",
"..*.$~~{{]{/(''''(/{]{{~{@@.@.. ",
"@@ +@{{{{){/(~~~~(/{){{{{ @@.   ",
"..@@.){{)._~~~~~~~~_ ){{)  ..$  ",
"@.@.@.))@@{_~~--~~_{..)) +.: .. ",
"@.$@.@. @//{{~~~~{{//.   . <.+..",
".   ..$/////--[[[}//// @ =.$.   ",
"$$.*:  ////|----}[|///@@...+ .$ ",
".., $..1|||----}-[|||@.@@@+  .  ",
",+ .$ 2.}-----}----[[[@.@ .... $",
", .. ..}}}}}}'----[[[[.@ $.@@ + ",
"...+ $>''}'''------[-[[:..@@@@+ ",
".@@.;*---''--------[--[[$+@.@   ",
"@@..+*[-----------[[--[[- .. $  ",
"..@@@*.[-[[-[[[-[[[-[[-[[....$. ",
" @@..3<[[[[[[4[-[[[[[[[[..,. .. ",
"+...5=$..44444-[-44444*. ,.$.+..",
"..6++.7;89404    $404;.@ * .    ",
" @,+.a  @b~~~@....~~~ ..@;.& @ +",
"@@@ .  @..|||..+* |||@.@..^ @@..",
"@@@.+....@@@.@@@* . @@@...;@..@@",
"...  $.@@@..@.@. . 3&@.@@,$ @@. ",
" @ $+.  @*$....,  *; .@@,c   . $"};
