/* XPM */
static char * mur_xpm[] = {
"32 32 52 1",
" 	c #3E9B6D",
".	c #8ACC29",
"+	c #48A264",
"@	c #8ACC28",
"#	c #29433C",
"$	c #365539",
"%	c #416636",
"&	c #8ECC80",
"*	c #689C2F",
"=	c #193631",
"-	c #8BCC47",
";	c #6CA32E",
">	c #80BA29",
",	c #CC2994",
"'	c #6D992A",
")	c #48A270",
"!	c #FEFFC1",
"~	c #80BD29",
"{	c #71A02A",
"]	c #72BB79",
"^	c #85C628",
"/	c #75A729",
"(	c #82BD29",
"_	c #87C729",
":	c #84C228",
"<	c #82C029",
"[	c #85C528",
"}	c #78AC29",
"|	c #8ACB28",
"1	c #8ACD29",
"2	c #88CA28",
"3	c #8ACD28",
"4	c #7FB928",
"5	c #8BCD28",
"6	c #87C827",
"7	c #87C728",
"8	c #86C728",
"9	c #88CA27",
"0	c #89CD28",
"a	c #89CC28",
"b	c #7DBC2B",
"c	c #89CB29",
"d	c #51A872",
"e	c #87C828",
"f	c #86C628",
"g	c #82BF29",
"h	c #89CA28",
"i	c #86C87E",
"j	c #6EA42F",
"k	c #8BCA80",
"l	c #84C67E",
"m	c #7BC17C",
" .. ++.@##$$$#@##%$#@##$$.  &&. ",
".  . @##.###*#####*###=##..&...&",
". .&-##.#*#;##.#>>$#.$;#=##$&&& ",
" .&=##,..'>'$...'>#...>>'##### )",
")##==,!,..~'.....>..,@.>.#*'{#. ",
"##...',..{{{>...'{',!,'....@## ]",
")=#*..'.'{^'''.'~''/,'..*..@.###",
".#...>>('>',@>_'{/:>({'.*.**..=#",
"]=#.'''{'>,!,.{><[}^|'<:.'1.*=#)",
" ==...''{'.,..1<'^2'''>>(''.*## ",
".##,..{''{'.13''^2'.*^2}4'@*..# ",
"#=,!,1{'^''/5/~^'{..**62'',..## ",
"##.,*'>'''>>7^'''...,53*^,!,..# ",
"&#=***''.'>>8'..<9.,!,^''',..## ",
"#=..*'',..'>'.*0a*^.,8}..>b*3.##",
".#**.',!,1.>....*0a@c'..**>*..# ",
"##.*.{',..'{/.*..''/}**...@^.=# ",
"##.***{{.>~^{{1.~/'{{}.*..''### ",
"d=##*.>^('''>2|e'''>f{'..{}'.=#)",
"d=#*.'>'{.>^'g{/.22{{^2he''''==#",
"..#**'''...,>''...'>>''1,^2a..##",
"###...'...,!,>..*.*^''1,!,>'.#= ",
"####..{'...,'{'...'''...,.>'.#  ",
"..###*'''.>{>.'>.{{.{>.1.'''.## ",
" &###''>>(''..*>_,...'>.'{''#.. ",
"]...###''{'.....,!,@*.^('''''##.",
"..i]]##'''{'...'{,...''{'>>#### ",
" &d].##''>'''.'~'''.'{'.#'###& ]",
"&&& . ####'>>('''>>j#'##### &&..",
"&&&.]....####$.*@.#1#===..k&..&&",
"...  ).&&&..###.#####&.&&d) &&. ",
" & )].  &l)...### #k .&&dm   . )"};
